<?xml version="1.0" encoding="utf-8"?>
<!-- Generator: Adobe Illustrator 24.3.0, SVG Export Plug-In . SVG Version: 6.00 Build 0)  -->
<svg version="1.1" id="Capa_1" xmlns="http://www.w3.org/2000/svg" xmlns:xlink="http://www.w3.org/1999/xlink" x="0px" y="0px"
	 viewBox="0 0 766 655.2" style="enable-background:new 0 0 766 655.2;" xml:space="preserve">
<style type="text/css">
	.st0{fill:#F2E7DF;}
</style>
<g>
	<g>
		<g>
			<g>
				<path class="st0" d="M261.3,437.9c-4.5,0-8.9-0.4-13.2-1.3c-35.5-7.1-56-40.5-52.1-85.2c3.9-44.9,38.8-234.8,40.3-242.9
					c0.5-2.7,2.8-4.8,5.5-5.1c4-0.4,98.9-9.6,141.7,38.4c1.3,1.4,1.8,3.4,1.5,5.3c-1.3,7.3-32.6,180.3-45.2,227.1
					C328.4,416.2,293.3,437.9,261.3,437.9z M247.8,115.6c-5.6,30.4-35.8,196.5-39.3,236.9c-3.3,38.4,12.8,65.9,42.1,71.8
					c24.6,4.9,64.9-8.4,77-53.4C339.2,328,367.7,172,372,148C337.6,112.7,266.6,114.4,247.8,115.6z"/>
				<path class="st0" d="M206.2,639.8c-0.4,0-0.9,0-1.3-0.1c-3.4-0.7-5.6-4.1-4.8-7.5l43.2-203c0.7-3.4,3.9-5.6,7.5-4.8
					c3.4,0.7,5.6,4.1,4.8,7.5l-43.2,203C211.7,637.8,209.1,639.8,206.2,639.8z"/>
				<path class="st0" d="M247.8,653.1c-0.5,0-1-0.1-1.5-0.2l-81.4-20.6c-3.4-0.9-5.4-4.3-4.6-7.6c0.9-3.4,4.2-5.4,7.6-4.6l81.4,20.6
					c3.4,0.9,5.4,4.3,4.6,7.6C253.2,651.2,250.6,653.1,247.8,653.1z"/>
				<path class="st0" d="M261.3,437.9c-4.5,0-8.9-0.4-13.2-1.3c-35.5-7.1-56-40.5-52.1-85.2c1.2-13.8,5.5-42.7,12.7-85.9
					c0.5-3,3.1-5.3,6.2-5.3c113.5,0,148.2-66.7,149.6-69.6c1.4-2.8,4.6-4.1,7.6-3.2c3,1,4.8,4,4.2,7.1
					c-4.7,24.9-28.7,150.6-36.5,179.6C328.4,416.2,293.3,437.9,261.3,437.9z M220.2,272.8c-6.6,40-10.5,66.8-11.7,79.7
					c-3.3,38.4,12.8,65.9,42.1,71.8c24.6,4.9,64.9-8.4,77-53.4c5.2-19.4,18.7-86.9,31.2-151.7C338,241.3,295.9,271.4,220.2,272.8z"
					/>
			</g>
		</g>
		<g>
			<path class="st0" d="M505.7,437.9c-32,0-67.1-21.7-78.4-63.7c-12.7-46.8-43.9-219.8-45.2-227.1c-0.3-1.9,0.2-3.9,1.5-5.3
				c42.8-47.9,137.7-38.7,141.7-38.4c2.8,0.3,5,2.4,5.5,5.1c1.5,8.1,36.4,198,40.3,242.9c3.9,44.6-16.6,78.1-52.1,85.2
				C514.6,437.5,510.2,437.9,505.7,437.9z M395,148c4.4,24,32.8,180.1,44.4,223c12.2,45,52.3,58.3,77.1,53.4
				c29.3-5.9,45.4-33.3,42-71.8c-3.5-40.4-33.7-206.5-39.3-236.9C500.3,114.5,429.3,112.7,395,148z"/>
			<path class="st0" d="M560.8,639.8c-2.9,0-5.5-2-6.1-5l-43.2-203c-0.7-3.4,1.4-6.7,4.8-7.5c3.4-0.7,6.7,1.5,7.5,4.8l43.2,203
				c0.7,3.4-1.4,6.7-4.8,7.5C561.7,639.7,561.3,639.8,560.8,639.8z"/>
			<path class="st0" d="M519.2,653.1c-2.8,0-5.4-1.9-6.1-4.8c-0.8-3.4,1.2-6.8,4.6-7.6l81.4-20.6c3.4-0.8,6.8,1.2,7.6,4.6
				c0.8,3.4-1.2,6.8-4.6,7.6l-81.4,20.6C520.2,653.1,519.7,653.1,519.2,653.1z"/>
			<path class="st0" d="M505.7,437.9c-32,0-67.1-21.7-78.4-63.7c-7.9-29-31.8-154.7-36.5-179.6c-0.6-3.1,1.2-6.1,4.2-7.1
				c3-1,6.2,0.3,7.6,3.2c1.4,2.8,36.1,69.6,149.6,69.6c3.1,0,5.7,2.2,6.2,5.3c7.2,43.3,11.5,72.2,12.7,85.9
				c3.9,44.6-16.6,78.1-52.1,85.2C514.6,437.5,510.2,437.9,505.7,437.9z M408.2,219.2c12.4,64.8,25.9,132.3,31.2,151.7
				c12.2,45,52.3,58.3,77.1,53.4c29.3-5.9,45.4-33.3,42-71.8c-1.1-12.8-5-39.6-11.7-79.7C471.1,271.4,429,241.3,408.2,219.2z"/>
		</g>
		<g>
			<path class="st0" d="M370.1,110.1c-1.4,0-2.7-0.4-3.9-1.3l-48.9-37.9c-2.7-2.1-3.3-6.1-1.1-8.8c2.1-2.8,6.1-3.2,8.8-1.1
				l48.9,37.9c2.7,2.1,3.3,6.1,1.1,8.8C373.8,109.3,372,110.1,370.1,110.1z"/>
			<path class="st0" d="M388.2,100.2c-3,0-5.7-2.2-6.2-5.3L368.6,10c-0.5-3.4,1.8-6.7,5.2-7.2c3.4-0.6,6.7,1.8,7.2,5.2L394.4,93
				c0.5,3.4-1.8,6.7-5.2,7.2C388.8,100.2,388.5,100.2,388.2,100.2z"/>
			<path class="st0" d="M408.6,100.2c-1.5,0-3-0.5-4.2-1.6c-2.6-2.3-2.7-6.3-0.4-8.9L449,40.2c2.3-2.6,6.3-2.8,8.9-0.4
				c2.6,2.3,2.7,6.3,0.4,8.9l-45.1,49.5C412,99.5,410.3,100.2,408.6,100.2z"/>
		</g>
	</g>
</g>
</svg>
