<?xml version="1.0" encoding="utf-8"?>
<!-- Generator: Adobe Illustrator 27.1.1, SVG Export Plug-In . SVG Version: 6.00 Build 0)  -->
<svg version="1.1" id="Capa_3" xmlns="http://www.w3.org/2000/svg" xmlns:xlink="http://www.w3.org/1999/xlink" x="0px" y="0px"
	 viewBox="0 0 766 811.4" style="enable-background:new 0 0 766 811.4;" xml:space="preserve">
<style type="text/css">
	.st0{fill:#705F4F;}
</style>
<g id="NrLaOD_1_">
	<g>
		<path class="st0" d="M531.7,327.6c0,28.5,0.4,52.9-0.1,77.3c-0.4,20.6,5.8,38.6,18.5,54.7c3.2,4.1,6.4,8.1,9.2,12.5
			c4.5,7.4,3.6,12.6-3.1,18.2c-16.6,14-33,27.9-49.6,41.9c-8.8,7.5-15.3,7.4-24.2,0.1c-12.8-10.4-23.1-22.9-32-36.6
			c-2.6-4.2-4.1-5.4-8.3-1.1c-18.6,18.2-39,34.1-65,40.3c-29.6,7-59.4,8.6-88.7-1.7c-32.4-11.3-52.5-34.6-59.9-67.8
			c-9.1-40.2-3.8-78,23.1-110.7c19.1-23.1,44.7-35.7,73.1-43.2c31.5-8.3,63.7-11,95.9-14.2c11.7-1.2,11.8-1.1,11.7-12.9
			c-0.1-7.8,0.1-15.5-0.6-23.3c-2.4-24.1-14.9-37.9-39-40.9c-23.5-2.9-44.2,3-58.3,23.8c-3.3,5-5.2,10.6-6.7,16.5
			c-2.5,10.1-7.3,13.5-17.5,12.4c-20.2-2.1-40.3-4.3-60.5-6.4c-11.3-1.2-15.1-6.7-12.8-17.9c9.1-41.3,33.4-70.5,72.1-86.3
			c51-20.5,103-22.3,154.9-3.4c41.9,15.1,63.9,45.8,66.8,90.3C532.7,276.8,531.4,304.2,531.7,327.6z M432.5,377
			c0-6.8-0.2-13.5,0.1-20.3c0.1-3.8-1-5.2-5-5.1c-14.5,0.6-29,1.4-43.2,4.5c-41.4,9.1-61.8,36.8-55.8,76.3c4.7,30,30.9,45.7,59,35.1
			c13.1-5,22.8-14.2,30.2-25.9C430.5,421.8,432.8,399.6,432.5,377z"/>
		<path class="st0" d="M387,665.5c-63-0.1-117.7-9.5-170.6-29c-45.5-16.7-87.5-40.3-125.6-70.5c-6.2-4.9-12.3-9.9-18.4-15.1
			c-1.6-1.4-3-3.2-3.8-5.2c-1.7-3.8,0.6-6.8,4.7-6.6c2.4,0.1,4.5,1.3,6.7,2.5c50.9,28.4,104.9,49.1,161.7,62.5
			c62.6,14.8,126.2,20,190.4,15.6c46.1-3.1,91.3-11.7,135.6-25c19.1-5.7,37.7-12.5,56-20c2.9-1.2,5.6-1.8,8.7-1.8
			c4.1-0.1,7.5,1,9.2,5.1c1.7,4.3,0,7.9-3.2,10.6c-6.7,6-14.5,10.3-22.3,14.9c-42.6,25.2-88.6,41.7-136.9,51.9
			C446.6,662.3,413.7,666.1,387,665.5z"/>
		<path class="st0" d="M633.5,551.3c-16.8,0.6-30.9,1.9-44.8,3.5c-3.5,0.4-7.4,1.4-8.6-2.7c-1.1-3.7,2.4-5.7,5.2-7.6
			c14-9.1,29.5-13.6,45.7-15.9c17.8-2.5,35.7-2.6,53.2,1.6c12.2,3,14.3,5.2,13.7,17.6c-1.6,34.7-14.1,64.7-39.1,89.1
			c-0.8,0.8-1.8,1.7-2.7,2.3c-2.4,1.2-5,2.1-7.3,0.5c-2.6-1.9-1.4-4.8-0.5-7c5.2-12.2,9.8-24.7,14-37.3c3.1-9.4,5.8-19,5.6-29.1
			c-0.1-7.5-2.1-10.1-9.4-12.5C649.4,550.9,640,551.8,633.5,551.3z"/>
	</g>
</g>
</svg>
