<?xml version="1.0" encoding="utf-8"?>
<!-- Generator: Adobe Illustrator 24.3.0, SVG Export Plug-In . SVG Version: 6.00 Build 0)  -->
<svg version="1.1" id="Capa_1" xmlns="http://www.w3.org/2000/svg" xmlns:xlink="http://www.w3.org/1999/xlink" x="0px" y="0px"
	 viewBox="0 0 766 655.2" style="enable-background:new 0 0 766 655.2;" xml:space="preserve">
<style type="text/css">
	.st0{fill:#EFE7DF;}
</style>
<g>
	<g>
		<g>
			<path class="st0" d="M387.2,154.8c-3,0-5.6-2.4-5.6-5.6V59.1c0-3,2.4-5.6,5.6-5.6c3,0,5.6,2.4,5.6,5.6v90.1
				C392.7,152.2,390.2,154.8,387.2,154.8z"/>
			<path class="st0" d="M419.6,92.1h-65.1c-3,0-5.6-2.4-5.6-5.6c0-3,2.4-5.6,5.6-5.6h65.1c3,0,5.6,2.4,5.6,5.6
				S422.7,92.1,419.6,92.1z"/>
		</g>
		<g>
			<g>
				<path class="st0" d="M187.6,601.6H57.1c-3,0-5.6-2.4-5.6-5.6V389.2c0-2.2,1.3-4.2,3.3-5.1L257.1,298c2.3-1,5.1-0.2,6.5,1.8
					c1.6,2,1.4,4.9-0.2,6.8l-70.3,84.7v204.9C193.2,599.1,190.7,601.6,187.6,601.6z M62.6,590.6h119.5V389.2c0-1.3,0.4-2.6,1.2-3.6
					l57.1-68.6L62.6,392.9V590.6z"/>
				<path class="st0" d="M717.3,601.6H586.7c-3,0-5.6-2.4-5.6-5.6V391.2l-70.4-84.7c-1.7-2-1.7-4.8-0.2-6.8c1.6-2.1,4.2-2.8,6.5-1.8
					L719.3,384c2,0.9,3.3,2.9,3.3,5.1V596C722.8,599.1,720.4,601.6,717.3,601.6z M592.3,590.6h119.6V392.9L534,317.1l57.1,68.6
					c0.8,1,1.2,2.2,1.2,3.6V590.6z"/>
			</g>
			<g>
				<path class="st0" d="M157.6,573.3H86.9c-3,0-5.6-2.4-5.6-5.6V441.6c0-22.5,18.3-40.9,40.9-40.9s40.9,18.3,40.9,40.9v126.1
					C163.2,570.8,160.7,573.3,157.6,573.3z M92.5,562.2h59.6V441.6c0-16.4-13.3-29.9-29.9-29.9c-16.4,0-29.9,13.3-29.9,29.9v120.6
					H92.5z"/>
				<path class="st0" d="M122.3,573.3c-3,0-5.6-2.4-5.6-5.6V406.3c0-3,2.4-5.6,5.6-5.6c3,0,5.6,2.4,5.6,5.6v161.4
					C127.9,570.8,125.3,573.3,122.3,573.3z"/>
				<path class="st0" d="M157.6,492.6H86.9c-3,0-5.6-2.4-5.6-5.6c0-3,2.4-5.6,5.6-5.6h70.7c3,0,5.6,2.4,5.6,5.6
					C163.2,490,160.7,492.6,157.6,492.6z"/>
			</g>
			<g>
				<path class="st0" d="M687.3,573.3h-70.7c-3,0-5.6-2.4-5.6-5.6V441.6c0-22.5,18.3-40.9,40.9-40.9c22.5,0,40.9,18.3,40.9,40.9
					v126.1C692.8,570.8,690.4,573.3,687.3,573.3z M622.2,562.2h59.6V441.6c0-16.4-13.3-29.9-29.9-29.9S622,425,622,441.6v120.6
					H622.2z"/>
				<path class="st0" d="M652,573.3c-3,0-5.6-2.4-5.6-5.6V406.3c0-3,2.4-5.6,5.6-5.6c3,0,5.6,2.4,5.6,5.6v161.4
					C657.5,570.8,655.1,573.3,652,573.3z"/>
				<path class="st0" d="M687.3,492.6h-70.7c-3,0-5.6-2.4-5.6-5.6c0-3,2.4-5.6,5.6-5.6h70.7c3,0,5.6,2.4,5.6,5.6
					C692.8,490,690.4,492.6,687.3,492.6z"/>
			</g>
		</g>
		<g>
			<path class="st0" d="M586.7,601.6H187.6c-3,0-5.6-2.4-5.6-5.6V389.2c0-1.3,0.4-2.6,1.2-3.6l199.5-240c2.1-2.6,6.4-2.6,8.4,0
				l199.7,240c0.8,1,1.2,2.2,1.2,3.6v206.9C592.3,599.1,589.7,601.6,586.7,601.6z M193.2,590.6h388V391.2l-194-233.3l-194,233.3
				V590.6z"/>
			<g>
				<path class="st0" d="M387.2,378.2c-38.5,0-69.9-31.3-69.9-69.9c0-38.5,31.3-69.9,69.9-69.9c38.5,0,69.9,31.3,69.9,69.9
					C457,346.8,425.7,378.2,387.2,378.2z M387.2,249.5c-32.4,0-58.8,26.4-58.8,58.8s26.4,58.8,58.8,58.8s58.8-26.4,58.8-58.8
					S419.6,249.5,387.2,249.5z"/>
				<path class="st0" d="M450.4,301.9H323.9c-3,0-5.6-2.4-5.6-5.6c0-3,2.4-5.6,5.6-5.6h126.4c3,0,5.6,2.4,5.6,5.6
					C455.9,299.3,453.4,301.9,450.4,301.9z"/>
				<path class="st0" d="M387.2,301.9c-1.8,0-3.4-0.9-4.6-2.3l-31-44.4c-1.8-2.6-1.1-5.9,1.3-7.7c2.6-1.8,6-1.1,7.7,1.3l26.4,38
					l26.4-38c1.8-2.4,5.2-3.1,7.7-1.3c2.6,1.8,3.1,5.2,1.3,7.7l-31,44.4C390.7,301,389,301.9,387.2,301.9z"/>
			</g>
			<g>
				<path class="st0" d="M498.2,601.6h-222c-3,0-5.6-2.4-5.6-5.6v-46.1c0-73.9,49.1-127.6,116.6-127.6s116.6,53.6,116.6,127.6v46.2
					C503.7,599.1,501.2,601.6,498.2,601.6z M281.6,590.6h211V550c0-67.5-44.4-116.6-105.5-116.6c-61.2,0-105.5,49.1-105.5,116.6
					V590.6L281.6,590.6z"/>
				<g>
					<path class="st0" d="M462.6,601.6c-3,0-5.6-2.4-5.6-5.6V460.8c0-3,2.4-5.6,5.6-5.6c3,0,5.6,2.4,5.6,5.6v135.3
						C468.1,599.1,465.7,601.6,462.6,601.6z"/>
					<path class="st0" d="M424.9,601.6c-3,0-5.6-2.4-5.6-5.6V437c0-3,2.4-5.6,5.6-5.6c3,0,5.6,2.4,5.6,5.6v159.1
						C430.4,599.1,428,601.6,424.9,601.6z"/>
					<path class="st0" d="M387.2,601.6c-3,0-5.6-2.4-5.6-5.6V428c0-3,2.4-5.6,5.6-5.6c3,0,5.6,2.4,5.6,5.6v168.1
						C392.7,599.1,390.2,601.6,387.2,601.6z"/>
					<path class="st0" d="M349.5,601.6c-3,0-5.6-2.4-5.6-5.6V437c0-3,2.4-5.6,5.6-5.6c3,0,5.6,2.4,5.6,5.6v159.1
						C354.9,599.1,352.5,601.6,349.5,601.6z"/>
					<path class="st0" d="M311.7,601.6c-3,0-5.6-2.4-5.6-5.6V460.8c0-3,2.4-5.6,5.6-5.6c3,0,5.6,2.4,5.6,5.6v135.3
						C317.3,599.1,314.7,601.6,311.7,601.6z"/>
				</g>
			</g>
		</g>
		<path class="st0" d="M760.4,601.6H5.6c-3,0-5.6-2.4-5.6-5.6c0-3,2.4-5.6,5.6-5.6h754.9c3,0,5.6,2.4,5.6,5.6
			S763.6,601.6,760.4,601.6z"/>
	</g>
</g>
</svg>
