<?xml version="1.0" encoding="utf-8"?>
<!-- Generator: Adobe Illustrator 27.2.0, SVG Export Plug-In . SVG Version: 6.00 Build 0)  -->
<svg version="1.1" id="Layer_1" xmlns="http://www.w3.org/2000/svg" xmlns:xlink="http://www.w3.org/1999/xlink" x="0px" y="0px"
	 viewBox="0 0 766 811.4" style="enable-background:new 0 0 766 811.4;" xml:space="preserve">
<style type="text/css">
	.st0{display:none;}
	.st1{display:inline;}
	.st2{fill:#D2D2D2;}
	.st3{fill:#20201D;}
	.st4{fill:none;stroke:#000000;stroke-width:3;stroke-miterlimit:10;}
</style>
<g id="Capa_2_00000152949880599160394690000011410247250778845115_" class="st0">
	<g id="_8y4Stp.tif" class="st1">
		<path class="st2" d="M41.8,167.2h682.4c10.4,0,18.8,8.4,18.8,18.8v439.3c0,10.4-8.4,18.8-18.8,18.8l0,0H41.8
			c-10.4,0-18.8-8.4-18.8-18.8l0,0V186C23,175.6,31.4,167.2,41.8,167.2z M628.4,202.6H137.6c-17.4,0-25.5,21.5-12.4,33l245.4,215.5
			c7.1,6.2,17.7,6.2,24.8,0l245.5-215.6C653.9,224.1,645.8,202.6,628.4,202.6z M137.3,609h491.3c17.4,0,25.5-21.5,12.4-33
			L486.3,440.1c-7.1-6.2-17.7-6.2-24.8,0l-66.1,58c-7.1,6.2-17.7,6.2-24.8,0l-66.1-58c-7.1-6.2-17.7-6.2-24.8,0L124.9,576
			C111.9,587.5,120,609,137.3,609z M516.8,419.8L676.3,560c12.2,10.7,31.2,2,31.2-14.1V265.5c0-10.4-8.4-18.8-18.8-18.8
			c-4.6,0-9,1.7-12.4,4.7L516.7,391.5c-7.8,6.9-8.6,18.8-1.7,26.6C515.6,418.7,516.1,419.3,516.8,419.8z M249.2,391.5L89.5,251.3
			c-12.2-10.7-31.2-2-31.2,14.1v280.5c0,10.4,8.4,18.8,18.8,18.8c4.6,0,9-1.7,12.4-4.7l159.7-140.3c7.8-6.9,8.6-18.8,1.7-26.6
			C250.4,392.6,249.8,392.1,249.2,391.5z"/>
	</g>
</g>
<g id="crumIY_00000086690814555486283610000011475605360566862494_">
	<g>
		<path class="st3" d="M383.17,593.55c-94.32,0-188.64,0-282.97,0c-9.8,0-12.07-2.28-12.07-12.04
			c0.01-117.49,0.02-234.97,0.02-352.46c0-8.39,2.69-11.19,10.97-11.19c189.31-0.01,378.62-0.01,567.93,0
			c7.99,0,10.8,2.87,10.8,10.86c0.01,117.82,0.02,235.64,0.02,353.46c0,8.83-2.52,11.36-11.24,11.36
			C572.15,593.55,477.66,593.55,383.17,593.55z M92.82,584.96c2.49,5.77,7.12,3.74,10.7,3.74c184.8,0.09,369.6,0.08,554.41,0.08
			c3.33,0,6.7,0.29,9.98-0.13c4.72,0,4.72-10.18,4.72-10.18c0-115.51,0-230.13,0-345.45l-0.07-7.63c-1.41-0.92-2.74-2.05-4.27-2.67
			c-1-0.41-2.3-0.09-3.47-0.09c-86.81-0.01-173.63-0.01-260.44-0.02c-101.48,0-202.96-0.01-304.43,0.11c-2.14,0-4.27,1.58-6.41,2.42
			l-0.35,7.75c0,115.64,0,230.19,0,345.72L92.82,584.96z"/>
	</g>
</g>
<g>
	<circle class="st4" cx="512.74" cy="464.34" r="41.16"/>
	<line class="st4" x1="167.96" y1="455.71" x2="150.7" y2="472.97"/>
	<line class="st4" x1="150.7" y1="455.71" x2="167.96" y2="472.97"/>
	<line class="st4" x1="199.07" y1="455.71" x2="181.81" y2="472.97"/>
	<line class="st4" x1="181.81" y1="455.71" x2="199.07" y2="472.97"/>
	<line class="st4" x1="230.18" y1="455.71" x2="212.92" y2="472.97"/>
	<line class="st4" x1="212.92" y1="455.71" x2="230.18" y2="472.97"/>
	<line class="st4" x1="261.29" y1="455.71" x2="244.02" y2="472.97"/>
	<line class="st4" x1="244.02" y1="455.71" x2="261.29" y2="472.97"/>
	<line class="st4" x1="292.39" y1="455.71" x2="275.13" y2="472.97"/>
	<line class="st4" x1="275.13" y1="455.71" x2="292.39" y2="472.97"/>
	<line class="st4" x1="323.5" y1="455.71" x2="306.24" y2="472.97"/>
	<line class="st4" x1="306.24" y1="455.71" x2="323.5" y2="472.97"/>
	<line class="st4" x1="354.61" y1="455.71" x2="337.35" y2="472.97"/>
	<line class="st4" x1="337.35" y1="455.71" x2="354.61" y2="472.97"/>
	<line class="st4" x1="385.72" y1="455.71" x2="368.45" y2="472.97"/>
	<line class="st4" x1="368.45" y1="455.71" x2="385.72" y2="472.97"/>
	<line class="st4" x1="416.82" y1="455.71" x2="399.56" y2="472.97"/>
	<line class="st4" x1="399.56" y1="455.71" x2="416.82" y2="472.97"/>
	<path class="st4" d="M535.57,430.09c11.05,7.38,18.33,19.96,18.33,34.25c0,14.29-7.28,26.87-18.33,34.25h79.72v-68.5H535.57z"/>
</g>
<rect x="92.82" y="271.21" class="st3" width="579.81" height="64.38"/>
</svg>
