<?xml version="1.0" encoding="utf-8"?>
<!-- Generator: Adobe Illustrator 24.3.0, SVG Export Plug-In . SVG Version: 6.00 Build 0)  -->
<svg version="1.1" id="Capa_1" xmlns="http://www.w3.org/2000/svg" xmlns:xlink="http://www.w3.org/1999/xlink" x="0px" y="0px"
	 viewBox="0 0 766 655.2" style="enable-background:new 0 0 766 655.2;" xml:space="preserve">
<style type="text/css">
	.st0{fill:#F2E7DF;}
</style>
<g>
	<g>
		<g>
			<path class="st0" d="M566.2,441.6c-107.4,0-194.8-87.4-194.8-194.8S458.8,52,566.2,52S761,139.3,761,246.8
				S673.6,441.6,566.2,441.6z M566.2,64.3c-100.6,0-182.4,81.8-182.4,182.4s81.8,182.4,182.4,182.4s182.4-81.8,182.4-182.4
				S666.7,64.3,566.2,64.3z M566.2,403.6c-86.5,0-156.9-70.3-156.9-156.9c0-86.5,70.3-156.9,156.9-156.9s156.9,70.3,156.9,156.9
				C723.1,333.2,652.6,403.6,566.2,403.6z M566.2,102.3c-79.6,0-144.4,64.8-144.4,144.4s64.8,144.4,144.4,144.4
				s144.4-64.8,144.4-144.4S645.8,102.3,566.2,102.3z"/>
		</g>
		<g>
			<path class="st0" d="M200.8,653.5C93.4,653.5,6,566.2,6,458.7s87.4-194.8,194.8-194.8s194.8,87.4,194.8,194.8
				S308.2,653.5,200.8,653.5z M200.8,276.4c-100.6,0-182.4,81.8-182.4,182.4s81.8,182.4,182.4,182.4s182.4-81.8,182.4-182.4
				C383.3,358.2,301.4,276.4,200.8,276.4z M200.8,615.6c-86.5,0-156.9-70.3-156.9-156.9c0-86.5,70.3-156.9,156.9-156.9
				c86.5,0,156.9,70.3,156.9,156.9S287.4,615.6,200.8,615.6z M200.8,314.3c-79.6,0-144.4,64.8-144.4,144.4s64.8,144.4,144.4,144.4
				s144.4-64.8,144.4-144.4S280.5,314.3,200.8,314.3z"/>
			<g>
				<path class="st0" d="M297.5,192.1H104.1c-2.4,0-4.6-1.4-5.6-3.6s-0.7-4.7,0.9-6.7l32-37.9c1.2-1.4,2.9-2.2,4.7-2.2H269
					c2,0,3.8,0.9,5,2.5l28.5,37.9c1.4,1.8,1.6,4.4,0.6,6.5C302,190.8,299.8,192.1,297.5,192.1z M117.5,179.7h167.6L266,154.1H139
					L117.5,179.7z"/>
				<path class="st0" d="M229.3,276.4h-58.7c-1.8,0-3.7-0.9-4.8-2.4l-66.4-84.3c-1.5-1.8-1.7-4.4-0.7-6.6s3.2-3.5,5.5-3.5h193.3
					c2.4,0,4.6,1.4,5.6,3.6s0.7,4.7-0.8,6.6l-68.2,84.3C233,275.5,231.1,276.4,229.3,276.4z M173.6,263.9h52.8l58.1-71.8H117
					L173.6,263.9z"/>
				<path class="st0" d="M165.9,192.1c-0.1,0-0.1,0-0.1,0c-1.8,0-3.6-0.9-4.7-2.4l-29.6-37.9c-2.1-2.7-1.6-6.6,1-8.8
					c2.7-2.1,6.6-1.6,8.8,1l25,32l28.2-32.3c1.2-1.3,2.8-2.1,4.5-2.1c1.6-0.3,3.3,0.6,4.6,1.7l33.8,33.2l27.1-32.7
					c2.2-2.7,6.1-3,8.8-0.8c2.7,2.2,3,6.1,0.8,8.8l-31.5,37.9c-1.2,1.4-2.8,2.2-4.5,2.2c-1.7,0.2-3.5-0.6-4.7-1.7l-33.9-33.3
					l-28.9,33C169.3,191.4,167.6,192.1,165.9,192.1z"/>
				<path class="st0" d="M190.2,276.4c-2.7,0-5.2-1.7-6-4.5l-24.3-84.3c-0.9-3.3,0.9-6.7,4.3-7.7c3.3-0.9,6.7,0.9,7.7,4.3l24.3,84.3
					c0.9,3.3-0.9,6.7-4.3,7.7C191.2,276.3,190.7,276.4,190.2,276.4z"/>
				<path class="st0" d="M208.5,276.4c-0.7,0-1.4-0.1-2-0.3c-3.2-1.2-5-4.6-3.9-7.8l28.6-84.3c1.2-3.2,4.6-5,7.8-3.9
					c3.2,1.2,5,4.6,3.9,7.8l-28.6,84.3C213.5,274.8,211.2,276.4,208.5,276.4z"/>
			</g>
			<g>
				<path class="st0" d="M87.7,149.7c-1.3,0-2.7-0.5-3.8-1.3l-34.7-26.7c-2.8-2.1-3.2-6-1.2-8.8c2.1-2.7,6-3.2,8.8-1.2l34.7,26.7
					c2.8,2.1,3.2,6,1.2,8.8C91.5,148.9,89.7,149.7,87.7,149.7z"/>
				<path class="st0" d="M115.7,128.3c-2.1,0-4-1-5.2-2.9L77.6,74.7c-1.8-2.9-1-6.7,1.8-8.5c2.9-1.8,6.7-1,8.6,1.8l32.9,50.7
					c1.8,2.9,1,6.7-1.8,8.5C118,127.9,116.9,128.3,115.7,128.3z"/>
				<path class="st0" d="M200.8,109.6c-3.5,0-6.2-2.8-6.2-6.2V8.5c0-3.5,2.8-6.2,6.2-6.2c3.5,0,6.2,2.8,6.2,6.2v94.9
					C207,106.7,204.3,109.6,200.8,109.6z"/>
				<path class="st0" d="M159.3,116c-2.8,0-5.3-1.8-6-4.7l-19.2-77c-0.8-3.3,1.2-6.7,4.5-7.5s6.7,1.2,7.5,4.5l19.2,77
					c0.8,3.3-1.2,6.7-4.5,7.5C160.3,115.9,159.8,116,159.3,116z"/>
				<path class="st0" d="M313.9,149.7c-1.8,0-3.7-0.8-5-2.4c-2.1-2.8-1.6-6.6,1.2-8.8l34.7-26.7c2.8-2.1,6.6-1.6,8.8,1.2
					c2.1,2.8,1.6,6.6-1.2,8.8l-34.7,26.7C316.5,149.4,315.1,149.7,313.9,149.7z"/>
				<path class="st0" d="M285.9,128.3c-1.2,0-2.3-0.3-3.3-1c-2.9-1.8-3.7-5.6-1.8-8.5l32.7-50.7c1.8-2.9,5.6-3.7,8.5-1.8
					c2.9,1.8,3.7,5.6,1.8,8.5l-32.7,50.7C289.9,127.2,287.9,128.3,285.9,128.3z"/>
				<path class="st0" d="M242.3,116c-0.5,0-1-0.1-1.5-0.2c-3.3-0.8-5.3-4.1-4.5-7.5l19.2-77c0.8-3.3,4.1-5.3,7.5-4.5
					c3.3,0.8,5.3,4.1,4.5,7.5l-19.2,77C247.6,114.1,245.1,116,242.3,116z"/>
			</g>
		</g>
	</g>
</g>
</svg>
