<?xml version="1.0" encoding="utf-8"?>
<!-- Generator: Adobe Illustrator 27.1.1, SVG Export Plug-In . SVG Version: 6.00 Build 0)  -->
<svg version="1.1" id="Capa_2" xmlns="http://www.w3.org/2000/svg" xmlns:xlink="http://www.w3.org/1999/xlink" x="0px" y="0px"
	 viewBox="0 0 766 811.4" style="enable-background:new 0 0 766 811.4;" xml:space="preserve">
<style type="text/css">
	.st0{fill:#705F4F;}
</style>
<g id="_8y4Stp.tif">
	<path class="st0" d="M41.8,167.2h682.4c10.4,0,18.8,8.4,18.8,18.8v439.3c0,10.4-8.4,18.8-18.8,18.8l0,0H41.8
		c-10.4,0-18.8-8.4-18.8-18.8l0,0V186C23,175.6,31.4,167.2,41.8,167.2z M628.4,202.6H137.6c-17.4,0-25.5,21.5-12.4,33l245.4,215.5
		c7.1,6.2,17.7,6.2,24.8,0l245.5-215.6C653.9,224.1,645.8,202.6,628.4,202.6z M137.3,609h491.3c17.4,0,25.5-21.5,12.4-33
		L486.3,440.1c-7.1-6.2-17.7-6.2-24.8,0l-66.1,58c-7.1,6.2-17.7,6.2-24.8,0l-66.1-58c-7.1-6.2-17.7-6.2-24.8,0L124.9,576
		C111.9,587.5,120,609,137.3,609z M516.8,419.8L676.3,560c12.2,10.7,31.2,2,31.2-14.1V265.5c0-10.4-8.4-18.8-18.8-18.8
		c-4.6,0-9,1.7-12.4,4.7L516.7,391.5c-7.8,6.9-8.6,18.8-1.7,26.6C515.6,418.7,516.1,419.3,516.8,419.8z M249.2,391.5L89.5,251.3
		c-12.2-10.7-31.2-2-31.2,14.1v280.5c0,10.4,8.4,18.8,18.8,18.8c4.6,0,9-1.7,12.4-4.7l159.7-140.3c7.8-6.9,8.6-18.8,1.7-26.6
		C250.4,392.6,249.8,392.1,249.2,391.5z"/>
</g>
</svg>
